<?xml version="1.0" encoding="UTF-8" standalone="no"?>
<!-- Created with Inkscape (http://www.inkscape.org/) -->

<svg
        xmlns:dc="http://purl.org/dc/elements/1.1/"
        xmlns:cc="http://creativecommons.org/ns#"
        xmlns:rdf="http://www.w3.org/1999/02/22-rdf-syntax-ns#"
        xmlns:sodipodi="http://sodipodi.sourceforge.net/DTD/sodipodi-0.dtd"
        xmlns:inkscape="http://www.inkscape.org/namespaces/inkscape"
        xmlns="http://www.w3.org/2000/svg"
        version="1.1"
        id="svg3832"
        xml:space="preserve"
        width="668.10156"
        height="120"
        viewBox="0 0 668.10157 119.99999"
        sodipodi:docname="minigigs_ct_logo.svg"
        inkscape:version="0.92.4 (f8dce91, 2019-08-02)"><metadata
     id="metadata3838"><rdf:RDF><cc:Work
         rdf:about=""><dc:format>image/svg+xml</dc:format><dc:type
        rdf:resource="http://purl.org/dc/dcmitype/StillImage"/><dc:title></dc:title></cc:Work></rdf:RDF></metadata>
    <defs
            id="defs3836"><clipPath
       clipPathUnits="userSpaceOnUse"
       id="clipPath3858"><path
         d="M 0,601 H 603 V 0 H 0 Z"
         id="path3856"
         inkscape:connector-curvature="0" /></clipPath></defs>
    <sodipodi:namedview
            pagecolor="#000000"
            bordercolor="#666666"
            borderopacity="1"
            objecttolerance="10"
            gridtolerance="10"
            guidetolerance="10"
            inkscape:pageopacity="0"
            inkscape:pageshadow="2"
            inkscape:window-width="1920"
            inkscape:window-height="1016"
            id="namedview3834"
            showgrid="false"
            inkscape:zoom="1.0457571"
            inkscape:cx="452.74043"
            inkscape:cy="-57.334895"
            inkscape:window-x="0"
            inkscape:window-y="27"
            inkscape:window-maximized="1"
            inkscape:current-layer="g3840"
            fit-margin-left="0"
            fit-margin-top="0"
            fit-margin-bottom="0"
            fit-margin-right="0"/>
    <g
            id="g3840"
            inkscape:groupmode="layer"
            inkscape:label="Minigigs_Logo_Legend"
            transform="matrix(1.3333333,0,0,-1.3333333,-26.163691,782.36606)"
            style="display:inline"><path
       d="M 109.62304,586.77456 H 19.622769 v -90 H 109.62304 Z M 88.789769,526.2306 H 77.750554 v 10.61993 L 71.618955,526.2306 H 59.800331 v 11.10933 L 53.176365,526.2306 H 41.261771 l 0.0026,0.003 v 31.0839 h 10.233207 v -13.92199 l 8.300778,13.92199 h 4.834536 5.400552 v -13.3681 l 7.717272,13.36671 v 7.3e-4 h 5.05e-4 4.767887 6.270796 z"
       style="fill:#ffffff;fill-opacity:1;fill-rule:nonzero;stroke:none;stroke-width:0.2687642"
       id="path3842"
       inkscape:connector-curvature="0" />
        <g
                id="g4785"
                transform="matrix(1.331953,0,0,1.331953,-234.18549,-89.457285)"><path
         inkscape:connector-curvature="0"
         id="path3844"
         style="fill:#ffffff;fill-opacity:1;fill-rule:nonzero;stroke:none;stroke-width:0.55641681"
         d="m 334.64499,469.57874 h 7.90057 v 30.97917 h -7.90057 z" />
            <g
                    style="fill:#ffffff"
                    transform="matrix(0.5692469,0,0,0.54387592,366.4927,487.19765)"
                    id="g3846"><path
           inkscape:connector-curvature="0"
           id="path3848"
           style="fill:#ffffff;fill-opacity:1;fill-rule:nonzero;stroke:none"
           d="m 0,0 21.636,-32.421 h 16.427 l -0.022,0.038 V 24.564 H 23.409 V -9.725 L 0.671,24.564 H -14.613 V -32.421 H 0 v 0.034 z" /></g>
            <path
                    inkscape:connector-curvature="0"
                    id="path3850"
                    style="fill:#ffffff;fill-opacity:1;fill-rule:nonzero;stroke:none;stroke-width:0.55641681"
                    d="m 403.21988,469.57874 h 7.90058 v 30.97917 h -7.90058 z"/>
            <g
                    style="fill:#ffffff"
                    transform="matrix(0.5692469,0,0,0.54387592,252.6222,413.27888)"
                    id="g3852"><g
           style="fill:#ffffff"
           id="g3860"
           transform="translate(330.2079,125.2012)"><path
             d="m 0,0 h 14.281 v -6.902 c -3.453,-2.085 -7.551,-3.185 -11.887,-3.185 -9.53,0 -16.993,7.399 -16.993,16.842 0,8.985 8.575,16.682 17.949,16.682 9.374,0 12.165,-1.332 15.749,-2.666 l 5.917,10.208 C 15.453,35.828 8.953,36.104 2.394,35.815 -14.699,35.064 -28.637,22.779 -28.637,6.755 c 0,-16.025 13.921,-29.064 31.031,-29.064 9.497,0 18.457,2.923 25.229,8.231 l 0.458,0.358 v 25.4 L 0,11.68 Z"
             style="fill:#ffffff;fill-opacity:1;fill-rule:nonzero;stroke:none"
             id="path3862"
             inkscape:connector-curvature="0" /></g>
                <g
                        style="fill:#ffffff"
                        id="g3864"
                        transform="translate(450.5282,125.2012)"><path
             d="m 0,0 h 14.281 v -6.902 c -3.453,-2.085 -7.551,-3.185 -11.887,-3.185 -9.53,0 -16.994,7.399 -16.994,16.842 0,8.985 8.576,16.682 17.95,16.682 9.374,0 12.165,-1.332 15.749,-2.666 l 5.917,10.208 C 15.453,35.828 8.953,36.104 2.394,35.815 -14.7,35.064 -28.638,22.779 -28.638,6.755 c 0,-16.025 13.921,-29.064 31.032,-29.064 9.497,0 18.457,2.923 25.229,8.231 l 0.458,0.358 v 25.4 L 0,11.68 Z"
             style="fill:#ffffff;fill-opacity:1;fill-rule:nonzero;stroke:none"
             id="path3866"
             inkscape:connector-curvature="0" /></g>
                <g
                        style="fill:#ffffff"
                        id="g3868"
                        transform="translate(530.4696,138.2031)"><path
             d="m 0,0 c -8.71,1.914 -11.507,3.418 -11.507,6.187 0,2.892 2.968,4.688 7.741,4.688 4.768,0 11.48,-1.427 16.702,-3.552 l 1.006,-0.408 5.734,10.936 -1.198,0.506 c -4.873,2.054 -12.644,4.505 -22.005,4.505 -13.122,0 -21.938,-7.073 -21.938,-17.605 0,-11.85 10.33,-15.111 21.832,-17.65 8.354,-1.892 11.036,-3.358 11.036,-6.036 0,-4.346 -5.4,-4.996 -8.616,-4.996 -6.782,0 -11.837,0.65 -19.116,4.065 l -1.071,0.505 -5.181,-10.733 1.072,-0.52 c 9.287,-4.505 14.333,-5.307 23.896,-5.307 14.171,0 22.974,6.866 22.974,17.915 C 21.361,-6.821 12.822,-2.783 0,0"
             style="fill:#ffffff;fill-opacity:1;fill-rule:nonzero;stroke:none"
             id="path3870"
             inkscape:connector-curvature="0" /></g>
                <g
                        style="fill:#ffffff"
                        id="g3872"
                        transform="translate(100.3511,160.4766)"><path
             d="M 0,0 -16.949,-29.206 -33.897,0 -49.182,-0.001 v -56.96 h 14.614 v 30.396 l 14.164,-24.456 h 6.911 l 14.164,24.456 v -30.396 h 14.613 v 56.96 z"
             style="fill:#ffffff;fill-opacity:1;fill-rule:nonzero;stroke:none"
             id="path3874"
             inkscape:connector-curvature="0" /></g>
                <path
                        d="m 383.745,103.516 h 13.879 v 56.96 h -13.879 z"
                        style="fill:#ffffff;fill-opacity:1;fill-rule:nonzero;stroke:none"
                        id="path3876"
                        inkscape:connector-curvature="0"/></g></g>
        <text
                xml:space="preserve"
                style="font-style:normal;font-weight:normal;font-size:33.8195076px;line-height:1.25;font-family:sans-serif;letter-spacing:0px;word-spacing:0px;opacity:0.98999999;fill:#008cb1;fill-opacity:1;stroke:none;stroke-width:0.84548753"
                x="136.88898"
                y="-582.81989"
                id="text4707"
                transform="scale(1.158349,-0.86329768)"><tspan
         sodipodi:role="line"
         id="tspan4705"
         x="136.88898"
         y="-582.81989"
         style="font-style:normal;font-variant:normal;font-weight:bold;font-stretch:normal;font-size:36px;font-family:sans-serif;-inkscape-font-specification:'sans-serif Bold';font-variant-ligatures:normal;font-variant-caps:normal;font-variant-numeric:normal;font-feature-settings:normal;text-align:start;writing-mode:lr-tb;text-anchor:start;fill:#008cb1;fill-opacity:1;stroke-width:0.84548753">CYCLING TEAM</tspan></text>
</g>
    <g
            inkscape:groupmode="layer"
            id="layer1"
            inkscape:label="cycling_team"
            transform="translate(-26.163691,-18.967272)"/></svg>