<?xml version="1.0" encoding="UTF-8" standalone="no"?>
<!-- Created with Inkscape (http://www.inkscape.org/) -->

<svg
        xmlns:dc="http://purl.org/dc/elements/1.1/"
        xmlns:cc="http://creativecommons.org/ns#"
        xmlns:rdf="http://www.w3.org/1999/02/22-rdf-syntax-ns#"
        xmlns:sodipodi="http://sodipodi.sourceforge.net/DTD/sodipodi-0.dtd"
        xmlns:inkscape="http://www.inkscape.org/namespaces/inkscape"
        xmlns="http://www.w3.org/2000/svg"
        version="1.1"
        id="svg4925"
        xml:space="preserve"
        width="804"
        height="801.33331"
        viewBox="0 0 804 801.33331"
        sodipodi:docname="minigigs_fc_with_subtitle.svg"
        inkscape:version="0.92.4 (f8dce91, 2019-08-02)"><metadata
     id="metadata4931"><rdf:RDF><cc:Work
         rdf:about=""><dc:format>image/svg+xml</dc:format><dc:type
        rdf:resource="http://purl.org/dc/dcmitype/StillImage"/><dc:title></dc:title></cc:Work></rdf:RDF></metadata>
    <defs
            id="defs4929"><clipPath
       clipPathUnits="userSpaceOnUse"
       id="clipPath4951"><path
         d="M 0,601 H 603 V 0 H 0 Z"
         id="path4949"
         inkscape:connector-curvature="0" /></clipPath></defs>
    <sodipodi:namedview
            pagecolor="#ffffff"
            bordercolor="#666666"
            borderopacity="1"
            objecttolerance="10"
            gridtolerance="10"
            guidetolerance="10"
            inkscape:pageopacity="0"
            inkscape:pageshadow="2"
            inkscape:window-width="1920"
            inkscape:window-height="1016"
            id="namedview4927"
            showgrid="false"
            inkscape:zoom="0.58901832"
            inkscape:cx="550.52468"
            inkscape:cy="388.63922"
            inkscape:window-x="0"
            inkscape:window-y="27"
            inkscape:window-maximized="1"
            inkscape:current-layer="g4933"/>
    <g
            id="g4933"
            inkscape:groupmode="layer"
            inkscape:label="Minigigs_Logo_FC_1"
            transform="matrix(1.3333333,0,0,-1.3333333,0,801.33333)"><path
       d="M 468.708,566.344 H 133.841 V 231.478 H 468.708 Z M 391.193,341.076 h -41.074 v 39.514 l -22.813,-39.514 h -43.974 v 41.335 l -24.646,-41.335 h -44.332 l 0.01,0.014 v 115.655 h 38.074 v -51.8 l 30.886,51.8 h 17.988 20.093 v -49.739 l 28.714,49.734 v 0.005 h 0.002 17.74 23.332 z"
       style="fill:#1d1d1b;fill-opacity:1;fill-rule:nonzero;stroke:none"
       id="path4935"
       inkscape:connector-curvature="0" />
        <path
                d="m 143.865,104.516 h 13.879 v 56.96 h -13.879 z"
                style="fill:#1d1d1b;fill-opacity:1;fill-rule:nonzero;stroke:none"
                id="path4937"
                inkscape:connector-curvature="0"/>
        <g
                id="g4939"
                transform="translate(199.8115,136.9111)"><path
         d="m 0,0 21.636,-32.421 h 16.427 l -0.022,0.038 V 24.564 H 23.409 V -9.726 L 0.671,24.564 H -14.613 V -32.421 H 0 v 0.034 z"
         style="fill:#1d1d1b;fill-opacity:1;fill-rule:nonzero;stroke:none"
         id="path4941"
         inkscape:connector-curvature="0" /></g>
        <path
                d="m 264.33,104.516 h 13.879 v 56.96 H 264.33 Z"
                style="fill:#1d1d1b;fill-opacity:1;fill-rule:nonzero;stroke:none"
                id="path4943"
                inkscape:connector-curvature="0"/>
        <g
                id="g4945"><g
         id="g4947"
         clip-path="url(#clipPath4951)"><g
           id="g4953"
           transform="translate(329.9824,126.2012)"><path
             d="m 0,0 h 14.281 v -6.902 c -3.453,-2.085 -7.551,-3.185 -11.887,-3.185 -9.53,0 -16.993,7.399 -16.993,16.842 0,8.985 8.575,16.682 17.949,16.682 9.374,0 12.165,-1.333 15.749,-2.666 l 5.917,10.208 c -9.563,4.849 -16.063,5.125 -22.622,4.836 -17.093,-0.751 -31.03,-13.036 -31.03,-29.06 0,-16.026 13.92,-29.064 31.03,-29.064 9.497,0 18.457,2.923 25.229,8.231 l 0.458,0.358 v 25.4 L 0,11.68 Z"
             style="fill:#1d1d1b;fill-opacity:1;fill-rule:nonzero;stroke:none"
             id="path4955"
             inkscape:connector-curvature="0" /></g><g
                id="g4957"
                transform="translate(450.3027,126.2012)"><path
             d="m 0,0 h 14.281 v -6.902 c -3.453,-2.085 -7.551,-3.185 -11.887,-3.185 -9.53,0 -16.994,7.399 -16.994,16.842 0,8.985 8.576,16.682 17.95,16.682 9.374,0 12.165,-1.333 15.749,-2.666 l 5.917,10.208 C 15.453,35.828 8.953,36.104 2.394,35.815 -14.7,35.064 -28.638,22.779 -28.638,6.755 c 0,-16.026 13.921,-29.064 31.032,-29.064 9.497,0 18.457,2.923 25.229,8.231 l 0.458,0.358 v 25.4 L 0,11.68 Z"
             style="fill:#1d1d1b;fill-opacity:1;fill-rule:nonzero;stroke:none"
             id="path4959"
             inkscape:connector-curvature="0" /></g><g
                id="g4961"
                transform="translate(530.2441,139.2031)"><path
             d="m 0,0 c -8.71,1.914 -11.507,3.418 -11.507,6.187 0,2.892 2.968,4.688 7.741,4.688 4.768,0 11.48,-1.427 16.702,-3.552 l 1.006,-0.408 5.734,10.936 -1.198,0.506 c -4.873,2.054 -12.644,4.505 -22.005,4.505 -13.122,0 -21.938,-7.073 -21.938,-17.605 0,-11.85 10.33,-15.111 21.832,-17.651 8.354,-1.891 11.036,-3.357 11.036,-6.035 0,-4.346 -5.4,-4.996 -8.616,-4.996 -6.782,0 -11.837,0.65 -19.116,4.065 l -1.071,0.505 -5.181,-10.733 1.072,-0.52 c 9.287,-4.505 14.333,-5.307 23.896,-5.307 14.171,0 22.974,6.866 22.974,17.915 C 21.361,-6.821 12.822,-2.783 0,0"
             style="fill:#1d1d1b;fill-opacity:1;fill-rule:nonzero;stroke:none"
             id="path4963"
             inkscape:connector-curvature="0" /></g><g
                id="g4965"
                transform="translate(100.1255,161.4766)"><path
             d="M 0,0 -16.949,-29.206 -33.897,0 -49.182,-0.001 v -56.96 h 14.614 v 30.396 l 14.164,-24.456 h 6.911 l 14.164,24.456 v -30.396 h 14.613 v 56.96 z"
             style="fill:#1d1d1b;fill-opacity:1;fill-rule:nonzero;stroke:none"
             id="path4967"
             inkscape:connector-curvature="0" /></g><path
                d="m 383.52,104.516 h 13.879 v 56.96 H 383.52 Z"
                style="fill:#1d1d1b;fill-opacity:1;fill-rule:nonzero;stroke:none"
                id="path4969"
                inkscape:connector-curvature="0"/><g
                id="g4971"
                transform="translate(194.4253,35.3643)"><path
             d="M 0,0 H 213.699"
             style="fill:none;stroke:#008cb6;stroke-width:2.83500004;stroke-linecap:butt;stroke-linejoin:miter;stroke-miterlimit:10;stroke-dasharray:none;stroke-opacity:1"
             id="path4973"
             inkscape:connector-curvature="0" /></g></g></g>
        <text
                transform="matrix(1,0,0,-1,58.9614,55.3643)"
                style="font-variant:normal;font-weight:600;font-stretch:normal;font-size:27.26479912px;font-family:'Glober SemiBold';-inkscape-font-specification:GloberSemiBold;writing-mode:lr-tb;fill:#008cb6;fill-opacity:1;fill-rule:nonzero;stroke:none"
                id="text4977"><tspan
         x="0 15.67726 31.845287 48.122372 60.20068 67.671234 84.193703 99.571053 111.64935 123.31869 139.62305 154.97313 167.05142 174.52199 185.45517 201.6232 213.70151 221.17206 234.66814 250.83617 267.11325 283.4176 299.91281 307.65601 315.12656 323.33325 331.48544 347.29901 363.60336 375.27271 382.74326 401.58325 409.0538 424.4584 432.6106 446.10666 462.38373 477.76108"
         y="0"
         sodipodi:role="line"
         id="tspan4975">your partner for sound, light &amp; visual</tspan></text>
</g></svg>